<?xml version="1.0" standalone="no"?>
<!DOCTYPE svg PUBLIC "-//W3C//DTD SVG 20010904//EN"
 "http://www.w3.org/TR/2001/REC-SVG-20010904/DTD/svg10.dtd">
<svg version="1.0" xmlns="http://www.w3.org/2000/svg"
 width="102.000000pt" height="102.000000pt" viewBox="0 0 102.000000 102.000000"
 preserveAspectRatio="xMidYMid meet">
<metadata>
Created by potrace 1.14, written by Peter Selinger 2001-2017
</metadata>
<g transform="translate(0.000000,102.000000) scale(0.100000,-0.100000)"
fill="#000000" stroke="none">
<path d="M199 994 c-18 -13 -29 -24 -25 -24 5 0 3 -6 -3 -14 -14 -17 -15 -682
-1 -691 5 -3 7 -12 3 -20 -3 -8 0 -15 6 -15 6 0 11 -9 11 -19 0 -11 7 -27 16
-35 8 -9 12 -16 7 -16 -4 0 21 -27 56 -60 35 -33 68 -57 72 -54 5 3 9 0 9 -5
0 -6 9 -11 20 -11 11 0 20 -4 20 -8 0 -11 8 -12 122 -16 54 -2 96 0 93 4 -3 4
11 11 30 14 19 4 35 12 35 18 0 6 3 9 6 5 7 -6 19 3 69 50 19 17 36 28 39 25
3 -3 6 0 6 7 0 7 9 24 20 38 11 14 20 34 20 44 0 11 4 19 9 19 5 0 8 11 7 25
-2 13 1 22 5 19 5 -3 9 147 9 334 l0 339 -30 34 c-26 30 -35 34 -79 34 -41 0
-53 -5 -75 -28 -14 -15 -27 -33 -28 -40 0 -7 -2 -147 -4 -312 -1 -165 -3 -308
-3 -317 -1 -9 -8 -24 -17 -32 -8 -9 -13 -16 -9 -16 4 0 0 -7 -9 -15 -24 -24
-88 -43 -118 -34 -15 4 -29 5 -32 2 -3 -3 -8 2 -12 11 -3 9 -10 13 -15 10 -5
-3 -12 3 -16 13 -4 10 -11 21 -17 25 -16 10 -16 26 -19 358 l-2 316 -29 29
c-39 39 -101 43 -147 9z"/>
</g>
</svg>
