<svg height="60" width="44" xmlns="http://www.w3.org/2000/svg"><path d="M20 31a1 1 0 1 1 0-2 1 1 0 0 1 0 2m1-4v-8a1 1 0 1 0-2 0v8a3 3 0 0 0-2 4L7 36a1 1 0 1 0 1 2l10-6a3 3 0 0 0 5-2l-2-3m23 0v6a1 1 0 1 1-2 0v-6a1 1 0 1 1 2 0M31 50l-1 9-1 1H11l-1-1-1-9a1 1 0 0 1 2 0l1 8h2v-5a1 1 0 1 1 2 0v5h8v-5a1 1 0 1 1 2 0v5h2l1-8 1-1 1 1M9 10l1-9 1-1h18l1 1 1 9a1 1 0 0 1-2 0l-1-8h-2v5a1 1 0 1 1-2 0V2h-8v5a1 1 0 1 1-2 0V2h-2l-1 8a1 1 0 0 1-2 0m21 35-1-1a1 1 0 1 0-1 1v1l-7 2v-3a1 1 0 1 0-2 0v3l-7-2v-1a1 1 0 1 0-1-1l-1 1-5-5 1-1a1 1 0 1 0-1-1H4l-2-7h3a1 1 0 1 0 0-2H2l2-7h1a1 1 0 0 0 1 0v-1l-1-1 5-5 1 1a1 1 0 1 0 1-1v-1l7-2v3a1 1 0 1 0 2 0v-3l7 2v1a1 1 0 1 0 1 1l1-1 5 5-1 1a1 1 0 1 0 1 1h1l2 7h-3a1 1 0 1 0 0 2h3l-2 7h-1a1 1 0 1 0-1 1l1 1-5 5m7-25c-1-3-4-6-7-7a20 20 0 0 0-20 0c-3 1-6 4-7 7a20 20 0 0 0 0 20c2 3 4 6 7 7a20 20 0 0 0 20 0c3-1 5-4 7-7a20 20 0 0 0 0-20" fill="#000" fill-rule="evenodd"/></svg>